<svg width="24" height="19" viewBox="0 0 24 19" fill="none" xmlns="http://www.w3.org/2000/svg">
<path d="M13.5521 0.347379C14.0206 -0.115697 14.7798 -0.11589 15.2483 0.347379L23.6485 8.66054C23.8733 8.88321 24 9.18591 24 9.50072C23.9998 9.81519 23.873 10.1167 23.6485 10.3392L15.2483 18.6523C14.7798 19.116 14.0207 19.1158 13.5521 18.6523C13.0835 18.1886 13.0835 17.4374 13.5521 16.9737L19.9027 10.6871H1.20053C0.538013 10.6871 0.000316868 10.1563 0 9.50072C5.26674e-08 8.84488 0.537818 8.31263 1.20053 8.31263H19.9027L13.5521 2.02775C13.0835 1.564 13.0835 0.811131 13.5521 0.347379Z" fill="#F3F2F2"/>
</svg>
