<svg width="148" height="121" viewBox="0 0 148 121" fill="none" xmlns="http://www.w3.org/2000/svg">
<path d="M100.802 8.50067C142.229 28.7506 159.396 78.7491 139.146 120.175C118.896 161.602 68.8972 178.769 27.4709 158.519C-13.9555 138.269 -31.1224 88.2704 -10.8725 46.844C9.37742 5.41766 59.3759 -11.7492 100.802 8.50067ZM45.622 83.7527C38.8726 99.014 34.6691 113.318 33.1642 124.574C32.2825 131.169 32.3947 136.24 33.1358 139.67C33.4997 141.354 33.9621 142.385 34.3249 142.956C34.4961 143.225 34.6261 143.371 34.6975 143.438C34.7636 143.499 34.7985 143.514 34.804 143.517C34.8095 143.52 34.8427 143.538 34.9319 143.552C35.0286 143.568 35.2232 143.581 35.5409 143.55C36.2148 143.486 37.3123 143.217 38.8641 142.47C42.0264 140.948 46.0964 137.922 50.7591 133.174C58.7162 125.073 67.4215 112.969 75.318 98.2686L45.622 83.7527ZM0.946208 61.9144C-7.27502 85.8722 -1.06479 112.059 15.9377 129.775C16.054 127.369 16.2737 124.889 16.6113 122.363C18.3895 109.063 23.2073 92.9966 30.5982 76.4088L0.946208 61.9144ZM90.3418 105.612C81.7926 121.634 72.074 135.305 62.6716 144.878C60.8851 146.697 59.0571 148.389 57.2293 149.959C81.6559 152.496 106.138 141.313 119.994 120.107L90.3418 105.612ZM112.332 37.2333C112.216 39.6425 112 42.1266 111.662 44.6562C109.884 57.956 105.066 74.0229 97.6749 90.6106L127.327 105.105C135.549 81.1439 129.34 54.9497 112.332 37.2333ZM93.3412 23.4672C93.2446 23.4519 93.0499 23.4386 92.7322 23.469C92.0584 23.5338 90.9608 23.8022 89.4091 24.549C86.2467 26.0716 82.1767 29.0978 77.514 33.845C69.5569 41.9464 60.8517 54.0503 52.9552 68.7509L82.6511 83.2668C89.4005 68.0054 93.6041 53.701 95.1089 42.4457C95.9907 35.8503 95.8785 30.7797 95.1373 27.3491C94.7734 25.6659 94.311 24.6349 93.9482 24.0634C93.777 23.794 93.647 23.6486 93.5756 23.5817C93.5095 23.5201 93.4746 23.5052 93.4691 23.5025C93.4637 23.4998 93.4304 23.4815 93.3412 23.4672ZM71.0401 17.0492C46.6151 14.5144 22.1345 25.7077 8.27935 46.9126L37.9314 61.407C46.4805 45.3854 56.1991 31.7141 65.6016 22.1412C67.3891 20.3213 69.2112 18.6203 71.0401 17.0492Z" fill="#F3F2F2" fill-opacity="0.12"/>
</svg>
